HIERARCHY
ROOT Hips
{
	OFFSET 0.000000 88.474243 0.000000
	CHANNELS 6 Xposition Yposition Zposition Zrotation Yrotation Xrotation 
	JOINT Hips_Spine
	{
		OFFSET 0.000000 0.000000 0.000000
		CHANNELS 3 Zrotation Yrotation Xrotation
		JOINT Spine
		{
			OFFSET 0.005100 8.711998 -0.691000
			CHANNELS 3 Zrotation Yrotation Xrotation
			JOINT Spine1
			{
				OFFSET -0.009200 8.660301 -1.275000
				CHANNELS 3 Zrotation Yrotation Xrotation
				JOINT Spine2
				{
					OFFSET 0.006300 9.852501 -1.857000
					CHANNELS 3 Zrotation Yrotation Xrotation
					JOINT Spine2_Neck
					{
						OFFSET 0.000000 0.000000 0.000000
						CHANNELS 3 Zrotation Yrotation Xrotation
						JOINT Neck
						{
							OFFSET 0.016300 11.420799 -0.263300
							CHANNELS 3 Zrotation Yrotation Xrotation
							End Site #name: Head
							{
								OFFSET -0.019200 9.262405 2.362500
							}
						}
					}
					JOINT Spine2_LeftShoulder
					{
						OFFSET 0.000000 0.000000 0.000000
						CHANNELS 3 Zrotation Yrotation Xrotation
						JOINT LeftShoulder
						{
							OFFSET 5.616900 6.732201 -0.345700
							CHANNELS 3 Zrotation Yrotation Xrotation
							JOINT LeftArm
							{
								OFFSET 10.664888 -0.183372 -2.440700
								CHANNELS 3 Zrotation Yrotation Xrotation
								JOINT LeftForeArm
								{
									OFFSET 27.459126 0.000000 0.000000
									CHANNELS 3 Zrotation Yrotation Xrotation
									End Site #name: LeftHand
									{
										OFFSET 21.306858 0.000000 0.000000
									}
								}
							}
						}
					}
					JOINT Spine2_RightShoulder
					{
						OFFSET 0.000000 0.000000 0.000000
						CHANNELS 3 Zrotation Yrotation Xrotation
						JOINT RightShoulder
						{
							OFFSET -5.580300 6.737503 -0.344400
							CHANNELS 3 Zrotation Yrotation Xrotation
							JOINT RightArm
							{
								OFFSET -10.679335 -0.188484 -2.383900
								CHANNELS 3 Zrotation Yrotation Xrotation
								JOINT RightForeArm
								{
									OFFSET -27.503529 0.000000 0.000000
									CHANNELS 3 Zrotation Yrotation Xrotation
									End Site #name: RightHand
									{
										OFFSET -21.306808 0.000000 0.000000
									}
								}
							}
						}
					}
				}
			}
		}
	}
	JOINT Hips_LeftUpLeg
	{
		OFFSET 0.000000 0.000000 0.000000
		CHANNELS 3 Zrotation Yrotation Xrotation
		JOINT LeftUpLeg
		{
			OFFSET 6.857700 -6.739601 0.312100
			CHANNELS 3 Zrotation Yrotation Xrotation
			JOINT LeftLeg
			{
				OFFSET -0.367590 -34.731552 -4.572400
				CHANNELS 3 Zrotation Yrotation Xrotation
				End Site #name: LeftFoot
				{
					OFFSET 0.367590 -34.656704 -6.067400
				}
			}
		}
	}
	JOINT Hips_RightUpLeg
	{
		OFFSET 0.000000 0.000000 0.000000
		CHANNELS 3 Zrotation Yrotation Xrotation
		JOINT RightUpLeg
		{
			OFFSET -6.876100 -6.733299 0.301000
			CHANNELS 3 Zrotation Yrotation Xrotation
			JOINT RightLeg
			{
				OFFSET 0.347353 -34.795158 -4.515900
				CHANNELS 3 Zrotation Yrotation Xrotation
				End Site #name: RightFoot
				{
					OFFSET -0.347353 -34.589367 -6.070300
				}
			}
		}
	}
}
MOTION
Frames: 10
Frame Time: 0.041667
0.844671 0.663930 -0.756504 -0.905887 -21.073117 -8.809366 -0.000000 -0.000000 -0.000000 2.688178 -1.992270 13.659601 2.585753 -1.291922 0.566914 0.000000 0.000000 0.000000 -0.480771 -0.012820 4.368391 -3.119951 0.893952 6.150115 1.716460 -2.000159 -3.249438 5.173728 -15.547490 1.366413 -68.214071 -56.451502 3.831205 0.568668 -58.783104 -3.021476 -1.753031 0.088595 3.958463 6.813604 11.485713 2.073812 61.449128 26.966430 -14.680074 -3.614325 70.355386 -2.068574 0.000000 0.000000 0.000000 9.230171 11.412037 -39.313481 5.623103 1.000387 55.427017 -0.000000 -0.000000 -0.000000 -0.365691 -2.797112 -24.380345 -4.458927 -5.123371 42.229715 
0.802602 0.695129 -0.779170 -0.821792 -21.017436 -8.802680 -0.000000 -0.000000 -0.000000 2.693684 -1.992254 13.654760 2.575393 -1.283527 0.587760 0.000000 0.000000 0.000000 -0.464971 -0.014394 4.377538 -3.112904 0.904384 6.182230 1.714992 -1.984714 -3.225400 5.211110 -15.515145 1.363020 -68.040169 -56.339374 3.837448 0.605652 -58.655513 -3.046291 -1.737258 0.095450 3.966411 6.847638 11.519587 2.072577 61.621116 26.992486 -14.613299 -3.547857 70.508061 -2.040350 0.000000 0.000000 0.000000 9.255272 11.457194 -39.295889 5.647257 0.996893 55.381845 -0.000000 -0.000000 -0.000000 -0.341218 -2.784017 -24.377533 -4.435301 -5.120076 42.220635 
0.760649 0.724959 -0.803892 -0.743304 -20.964193 -8.792180 -0.000000 -0.000000 -0.000000 2.698153 -1.992765 13.650175 2.563812 -1.273814 0.609077 0.000000 0.000000 0.000000 -0.450087 -0.018021 4.387292 -3.104066 0.917384 6.216676 1.713577 -1.971974 -3.201052 5.235964 -15.470145 1.360747 -67.853662 -56.215028 3.832693 0.635445 -58.522970 -3.064329 -1.722701 0.101464 3.976519 6.883113 11.552219 2.071034 61.766351 26.998433 -14.539650 -3.489091 70.670887 -2.014774 0.000000 0.000000 0.000000 9.275273 11.497804 -39.278279 5.668160 0.993814 55.342716 0.000000 -0.000000 -0.000000 -0.321635 -2.774814 -24.378493 -4.413364 -5.117433 42.212079 
0.718940 0.753675 -0.830214 -0.672543 -20.921809 -8.785565 -0.000000 -0.000000 -0.000000 2.701924 -1.991870 13.647992 2.551591 -1.264473 0.628018 0.000000 0.000000 0.000000 -0.436887 -0.022588 4.394745 -3.096137 0.928758 6.248633 1.707723 -1.959443 -3.175622 5.250590 -15.419652 1.360428 -67.703325 -56.087265 3.861698 0.658140 -58.372336 -3.076812 -1.710182 0.108201 3.988237 6.924244 11.586209 2.071389 61.882070 26.989074 -14.472909 -3.434127 70.830358 -1.988620 0.000000 0.000000 0.000000 9.293559 11.529397 -39.264317 5.687661 0.989773 55.312554 0.000000 -0.000000 -0.000000 -0.302487 -2.767913 -24.381705 -4.392111 -5.116301 42.194966 
0.677619 0.781473 -0.857625 -0.609804 -20.890700 -8.777710 -0.000000 -0.000000 -0.000000 2.703694 -1.992936 13.641443 2.539743 -1.255274 0.644983 0.000000 0.000000 0.000000 -0.425402 -0.026822 4.400964 -3.085600 0.943827 6.289864 1.700333 -1.949915 -3.153826 5.261267 -15.371404 1.359563 -67.568091 -55.956754 3.907660 0.673826 -58.218042 -3.084904 -1.698371 0.115746 3.995110 6.958571 11.619068 2.070715 61.983312 26.963856 -14.413650 -3.388516 70.987590 -1.966916 0.000000 0.000000 0.000000 9.312140 11.559159 -39.249115 5.705516 0.986753 55.286969 0.000000 -0.000000 -0.000000 -0.284826 -2.757756 -24.378333 -4.371304 -5.114998 42.170233 
0.636923 0.808491 -0.885711 -0.553760 -20.870891 -8.773416 -0.000000 -0.000000 -0.000000 2.703628 -1.994015 13.636856 2.526650 -1.245479 0.660572 0.000000 0.000000 0.000000 -0.414639 -0.032677 4.404019 -3.081315 0.955569 6.326762 1.694118 -1.944965 -3.132438 5.267895 -15.323758 1.358880 -67.440789 -55.822894 3.975069 0.684810 -58.044878 -3.090714 -1.687655 0.121861 4.000494 6.988520 11.650690 2.071361 62.082486 26.928509 -14.350568 -3.348857 71.148771 -1.944733 0.000000 0.000000 0.000000 9.324665 11.584260 -39.237757 5.721640 0.984485 55.258319 0.000000 -0.000000 -0.000000 -0.268932 -2.752078 -24.384069 -4.348821 -5.115741 42.147979 
0.596968 0.834960 -0.913913 -0.506882 -20.859580 -8.767291 -0.000000 -0.000000 -0.000000 2.701986 -1.997036 13.631252 2.511173 -1.237905 0.672330 0.000000 0.000000 0.000000 -0.403116 -0.040947 4.402934 -3.078273 0.966034 6.360449 1.684779 -1.940676 -3.107933 5.263582 -15.276015 1.359631 -67.340993 -55.690864 4.053321 0.687549 -57.865873 -3.093525 -1.677437 0.128123 4.005760 7.011717 11.683253 2.073645 62.175294 26.872340 -14.289165 -3.313929 71.313017 -1.922180 0.000000 0.000000 0.000000 9.336259 11.599728 -39.232572 5.733970 0.981620 55.247579 0.000000 -0.000000 -0.000000 -0.256509 -2.747439 -24.387613 -4.330793 -5.114561 42.120465 
0.558036 0.861073 -0.941777 -0.465531 -20.866009 -8.766605 -0.000000 -0.000000 -0.000000 2.697121 -2.001086 13.624615 2.494505 -1.229373 0.688353 0.000000 0.000000 0.000000 -0.392974 -0.049624 4.400909 -3.072552 0.975297 6.390771 1.673791 -1.936215 -3.081390 5.254295 -15.219144 1.358636 -67.260847 -55.557903 4.164679 0.688635 -57.692268 -3.095938 -1.668112 0.134946 4.011983 7.038262 11.716559 2.078724 62.267117 26.806091 -14.193347 -3.287080 71.475298 -1.902384 0.000000 0.000000 0.000000 9.345913 11.603884 -39.227893 5.745031 0.980793 55.238031 0.000000 -0.000000 -0.000000 -0.246062 -2.742407 -24.390179 -4.314147 -5.114809 42.093942 
0.520324 0.886970 -0.968851 -0.430771 -20.882498 -8.765759 -0.000000 -0.000000 -0.000000 2.689482 -2.005992 13.618714 2.475806 -1.220162 0.707236 0.000000 0.000000 0.000000 -0.383230 -0.061284 4.399535 -3.068177 0.982572 6.420791 1.661360 -1.936585 -3.051233 5.234271 -15.162071 1.359398 -67.197674 -55.436147 4.280581 0.683384 -57.512368 -3.098434 -1.658176 0.140953 4.020623 7.057933 11.752490 2.085181 62.384404 26.709842 -14.055237 -3.267936 71.644549 -1.884556 0.000000 0.000000 0.000000 9.351983 11.599771 -39.231151 5.752083 0.979756 55.239297 0.000000 -0.000000 -0.000000 -0.237199 -2.739650 -24.392677 -4.302095 -5.114482 42.063650 
0.484472 0.912757 -0.994621 -0.402740 -20.912830 -8.767985 -0.000000 -0.000000 -0.000000 2.679652 -2.011666 13.612505 2.451964 -1.210531 0.726691 0.000000 0.000000 0.000000 -0.373304 -0.074743 4.395698 -3.060162 0.986895 6.444230 1.646481 -1.935428 -3.016999 5.207576 -15.103521 1.361252 -67.162240 -55.306412 4.440936 0.675837 -57.342838 -3.095823 -1.648450 0.146429 4.031062 7.069339 11.781522 2.092408 62.526672 26.578802 -13.855116 -3.246934 71.834088 -1.860061 0.000000 0.000000 0.000000 9.351748 11.593251 -39.241963 5.758697 0.979790 55.246934 0.000000 -0.000000 -0.000000 -0.231458 -2.739779 -24.399839 -4.289958 -5.114161 42.034795 
